<?xml version="1.0" encoding="UTF-8"?>
<svg id="_Шар_2" data-name="Шар 2" xmlns="http://www.w3.org/2000/svg" xmlns:xlink="http://www.w3.org/1999/xlink" viewBox="0 0 258.77 80.2">
  <defs>
    <style>
      .cls-1 {
        fill: #03158f;
      }

      .cls-2 {
        stroke: url(#New_Gradient_Swatch_4);
      }

      .cls-2, .cls-3, .cls-4 {
        fill: none;
        stroke-linecap: round;
        stroke-linejoin: round;
        stroke-width: 8.17px;
      }

      .cls-3 {
        stroke: url(#linear-gradient);
      }

      .cls-4 {
        stroke: url(#linear-gradient-2);
      }
    </style>
    <linearGradient id="New_Gradient_Swatch_4" data-name="New Gradient Swatch 4" x1="39.55" y1="80.2" x2="39.55" y2="4.07" gradientUnits="userSpaceOnUse">
      <stop offset=".01" stop-color="#00ad6a"/>
      <stop offset="1" stop-color="#00e78e"/>
    </linearGradient>
    <linearGradient id="linear-gradient" x1="24.5" y1="44.74" x2="36.86" y2="66.14" gradientUnits="userSpaceOnUse">
      <stop offset="0" stop-color="#030303"/>
      <stop offset=".57" stop-color="#030303" stop-opacity=".02"/>
    </linearGradient>
    <linearGradient id="linear-gradient-2" y1="27" y2="48.41" xlink:href="#linear-gradient"/>
  </defs>
  <g id="Layer_1" data-name="Layer 1">
    <g>
      <g>
        <path class="cls-2" d="m33.93,9.48L4.08,24.41l35.46,17.73L4.08,59.87l29.84,14.92c3.54,1.77,7.7,1.77,11.24,0l29.84-14.92-17.73-8.87-17.73,8.87L4.08,42.14l35.46-17.73,17.73,8.87,17.73-8.87-29.84-14.92c-3.54-1.77-7.7-1.77-11.24,0Z"/>
        <line class="cls-3" x1="39.55" y1="59.87" x2="21.82" y2="51"/>
        <line class="cls-4" x1="39.55" y1="42.14" x2="21.82" y2="33.27"/>
        <path class="cls-2" d="m4.08,24.41l29.84-14.92c3.54-1.77,7.7-1.77,11.24,0l29.84,14.92-17.73,8.87-17.73-8.87L4.08,42.14m35.46,0L4.08,59.87l29.84,14.92c3.54,1.77,7.7,1.77,11.24,0l29.84-14.92-17.73-8.87-17.73,8.87"/>
      </g>
      <g>
        <path class="cls-1" d="m86.54,34.96c0-11.33,8.31-19.63,20.09-19.63s19.94,8.31,19.94,19.63v3.17h-30.58c1.21,5.44,5.36,8.31,10.65,8.31,3.34,0,5.94-.79,7.8-2.45.85-.75,1.98-1.1,3.11-1.1h7.51c-2.79,7.1-9.59,11.71-18.42,11.71-11.78,0-20.09-8.31-20.09-19.63Zm30.51-4c-1.43-4.98-5.51-7.48-10.42-7.48s-8.99,2.57-10.42,7.48h20.84Z"/>
        <path class="cls-1" d="m131.12,34.96c0-11.33,8.31-19.63,20.09-19.63,10.12,0,17.52,6.12,19.33,14.95h-9.06c-1.59-4-5.36-6.57-10.27-6.57-6.14,0-11.01,5.08-11.03,11.22-.01,6.59,4.44,11.28,11.02,11.28,3.99,0,7.23-1.7,9.16-4.48.91-1.32,2.42-2.09,4.01-2.09h6.16c-1.81,8.83-9.21,14.95-19.33,14.95-11.78,0-20.09-8.31-20.09-19.63Z"/>
        <path class="cls-1" d="m176.49,0h4.07c2.72,0,4.92,2.2,4.92,4.92v16.6c2.49-4,6.34-6.19,11.1-6.19,8.61,0,16.76,5.59,16.76,18.88v19.41h-4.07c-2.72,0-4.92-2.2-4.92-4.92v-14.49c0-7.1-3.78-10.5-9.44-10.5s-9.44,3.55-9.44,10.5v19.41h-4.07c-2.72,0-4.92-2.2-4.92-4.92V0Z"/>
        <path class="cls-1" d="m218.6,34.96c0-11.33,8.31-19.63,20.09-19.63s20.09,8.31,20.09,19.63-8.31,19.63-20.09,19.63-20.09-8.31-20.09-19.63Zm31.04,0c0-6.57-4.38-11.25-10.95-11.25s-11.03,4.68-11.03,11.25,4.46,11.25,11.03,11.25,10.95-4.68,10.95-11.25Z"/>
      </g>
      <g>
        <polygon class="cls-1" points="89.81 61.81 92.13 61.81 95.89 67.66 99.66 61.81 101.98 61.81 101.98 74.19 99.8 74.19 99.8 65.31 95.89 71.15 95.82 71.15 91.95 65.35 91.95 74.19 89.81 74.19 89.81 61.81"/>
        <path class="cls-1" d="m124.6,61.72h-2.02l-5.45,12.46h2.23l1.27-2.99h5.85l1.26,2.99h2.3l-5.45-12.46Zm-3.16,7.55l2.12-4.95,2.14,4.95h-4.26Z"/>
        <path class="cls-1" d="m152.39,69.5c1.71-.49,2.93-1.71,2.93-3.75v-.04c0-1.08-.37-2-1.03-2.67-.8-.78-2.02-1.24-3.57-1.24h-5.52v12.38h2.17v-4.31h2.72l3.04,4.31h2.58l-3.34-4.69Zm-5-1.56v-4.15h3.16c1.61,0,2.56.72,2.56,2.05v.04c0,1.26-.99,2.07-2.55,2.07h-3.18Z"/>
        <polygon class="cls-1" points="171.2 61.81 173.38 61.81 173.38 68.04 179.27 61.81 181.95 61.81 176.79 67.13 182.18 74.19 179.53 74.19 175.31 68.62 173.38 70.6 173.38 74.19 171.2 74.19 171.2 61.81"/>
        <polygon class="cls-1" points="197.22 61.81 206.4 61.81 206.4 63.76 199.4 63.76 199.4 66.98 205.6 66.98 205.6 68.92 199.4 68.92 199.4 72.24 206.49 72.24 206.49 74.19 197.22 74.19 197.22 61.81"/>
        <polygon class="cls-1" points="225.32 63.83 221.4 63.83 221.4 61.81 231.44 61.81 231.44 63.83 227.51 63.83 227.51 74.19 225.32 74.19 225.32 63.83"/>
        <path class="cls-1" d="m245.91,72.39l1.31-1.56c1.18,1.03,2.39,1.61,3.91,1.61,1.34,0,2.19-.64,2.19-1.56v-.04c0-.88-.5-1.36-2.79-1.89-2.63-.64-4.12-1.41-4.12-3.7v-.04c0-2.12,1.77-3.59,4.23-3.59,1.8,0,3.24.55,4.49,1.56l-1.17,1.64c-1.11-.83-2.23-1.27-3.36-1.27-1.27,0-2.02.65-2.02,1.47v.04c0,.95.57,1.38,2.95,1.94,2.62.64,3.96,1.57,3.96,3.62v.04c0,2.32-1.82,3.7-4.42,3.7-1.89,0-3.68-.65-5.16-1.98Z"/>
      </g>
    </g>
  </g>
</svg>